<svg xmlns="http://www.w3.org/2000/svg" viewBox="0 0 400 250" width="100%" height="100%">
    <defs>
      <style>
        @import url('https://fonts.googleapis.com/css2?family=Cinzel:wght@400;700&amp;family=Great+Vibes&amp;family=Montserrat:ital,wght@0,300;0,400;0,700;0,900;1,700&amp;family=Playfair+Display:ital,wght@0,400;0,700;1,400&amp;family=Dancing+Script:wght@700&amp;family=Alex+Brush&amp;family=Fredoka+One&amp;display=swap');
        text { dominant-baseline: middle; text-anchor: middle; }
        .cinzel { font-family: 'Cinzel', serif; }
        .playfair { font-family: 'Playfair Display', serif; }
        .montserrat { font-family: 'Montserrat', sans-serif; }
        .great-vibes { font-family: 'Great Vibes', cursive; }
        .dancing { font-family: 'Dancing Script', cursive; }
        .alex-brush { font-family: 'Alex Brush', cursive; }
        .fredoka { font-family: 'Fredoka One', cursive; }
      </style>
    </defs>
    
    <g>
      <rect x="90" y="85" width="6" height="10" rx="3" fill="#762fb1" /><rect x="102" y="80" width="6" height="20" rx="3" fill="#762fb1" /><rect x="114" y="72.5" width="6" height="35" rx="3" fill="#762fb1" /><rect x="126" y="65" width="6" height="50" rx="3" fill="#762fb1" /><rect x="138" y="55" width="6" height="70" rx="3" fill="#762fb1" /><rect x="150" y="45" width="6" height="90" rx="3" fill="#762fb1" /><rect x="162" y="55" width="6" height="70" rx="3" fill="#762fb1" /><rect x="174" y="65" width="6" height="50" rx="3" fill="#762fb1" /><rect x="186" y="72.5" width="6" height="35" rx="3" fill="#762fb1" /><rect x="198" y="80" width="6" height="20" rx="3" fill="#762fb1" /><rect x="210" y="85" width="6" height="10" rx="3" fill="#762fb1" />
      <text x="200" y="165" class="montserrat" font-size="28" font-weight="900" letter-spacing="2" fill="#1a1a1a">SOUND WAVE</text>
      <text x="200" y="190" class="montserrat" font-size="12" font-weight="700" letter-spacing="4" fill="#1a1a1a">PROFESSIONALS</text>
    </g>
  
  </svg>